<?xml version="1.0" encoding="UTF-8" standalone="no"?>
<svg
   xmlns:dc="http://purl.org/dc/elements/1.1/"
   xmlns:cc="http://creativecommons.org/ns#"
   xmlns:rdf="http://www.w3.org/1999/02/22-rdf-syntax-ns#"
   xmlns:svg="http://www.w3.org/2000/svg"
   xmlns="http://www.w3.org/2000/svg"
   xmlns:sodipodi="http://sodipodi.sourceforge.net/DTD/sodipodi-0.dtd"
   xmlns:inkscape="http://www.inkscape.org/namespaces/inkscape"
   width="1575px"
   height="360px"
   viewBox="0 0 1575 360"
   version="1.1"
   id="SVGRoot"
   sodipodi:docname="Vinaphone.svg"
   inkscape:version="1.0.1 (3bc2e813f5, 2020-09-07)">
  <defs
     id="defs3852" />
  <sodipodi:namedview
     id="base"
     pagecolor="#ffffff"
     bordercolor="#666666"
     borderopacity="1.0"
     inkscape:pageopacity="0.0"
     inkscape:pageshadow="2"
     inkscape:zoom="0.35"
     inkscape:cx="400"
     inkscape:cy="560"
     inkscape:document-units="px"
     inkscape:current-layer="layer1"
     inkscape:document-rotation="0"
     showgrid="false"
     inkscape:window-width="1920"
     inkscape:window-height="1001"
     inkscape:window-x="-9"
     inkscape:window-y="-9"
     inkscape:window-maximized="1" />
  <metadata
     id="metadata3855">
    <rdf:RDF>
      <cc:Work
         rdf:about="">
        <dc:format>image/svg+xml</dc:format>
        <dc:type
           rdf:resource="http://purl.org/dc/dcmitype/StillImage" />
        <dc:title></dc:title>
      </cc:Work>
    </rdf:RDF>
  </metadata>
  <g
     inkscape:label="Lớp 1"
     inkscape:groupmode="layer"
     id="layer1">
    <path
       id="path874"
       style="fill:#00a1e4;fill-opacity:1;stroke:none;stroke-width:1.6311px;stroke-linecap:butt;stroke-linejoin:miter;stroke-opacity:1"
       d="m 213.51864,28.966645 v 46.839938 h 46.83995 V 28.966645 Z m 631.60179,0 V 278.3783 h 46.81125 V 172.7678 c 0,0 0.32361,-39.65965 36.08171,-38.68445 0,0 18.0853,-1.55605 24.81685,12.79712 2.34585,5.00166 2.66065,12.11098 2.81316,21.33491 V 278.3783 h 48.436 V 148.71225 c 0,0 5e-4,-51.038252 -59.48735,-52.338516 0,0 -37.70711,-1.625146 -52.66037,24.380466 V 28.966645 Z m 269.89917,66.069066 c -9.8576,0 -50.6386,1.98844 -72.2558,33.845309 0,0 -25.6813,31.53405 -14.629,85.49575 0,0 9.7506,61.76095 87.1174,64.36151 77.3667,2.60056 88.7451,-65.01141 88.7451,-65.01141 0,0 12.5498,-59.35627 -20.153,-91.6697 -8.9805,-8.87362 -18.6137,-15.15604 -28.369,-19.15268 -19.9065,-8.155331 -38.2704,-7.830546 -38.2704,-7.830546 0,0 -0.7772,-0.03817 -2.1853,-0.03817 z m 376.0958,0.990762 c -1.5975,-0.02659 -3.2505,-0.02398 -4.9569,0.01631 -17.7875,0.417431 -38.8194,4.875847 -54.9382,21.137387 0,0 -24.0526,19.82898 -23.7275,67.28922 0.3249,47.46027 18.8534,66.31438 18.8534,66.31438 0,0 19.1798,27.59489 64.3647,27.59491 0,0 61.1127,2.31314 76.0658,-56.52461 h -47.1362 c 0,0 -6.1752,19.50335 -27.6298,18.85319 -18.5686,-0.56265 -35.1774,-10.39633 -38.8916,-40.63413 h 115.6074 c 0,0 6.8266,-71.84182 -41.9339,-96.22208 0,0 -11.7141,-7.42398 -35.6772,-7.824203 z m -167.5031,0.289928 c -8.9326,0.136197 -34.0391,2.576729 -47.7733,24.762779 V 96.373751 h -47.4612 V 278.37832 h 47.4612 V 167.89044 c 0,0 -0.3255,-33.15667 34.4569,-34.45695 0,0 29.9046,-1.62703 29.9046,29.25464 v 115.69019 h 46.8113 V 145.45964 c 0,0 1.0977,-19.89435 -19.2005,-36.05301 -8.8329,-7.03162 -21.1963,-13.032879 -40.9367,-13.032879 0,0 -1.2009,-0.08873 -3.2623,-0.05725 z M 10.946857,96.622248 79.40214,278.37832 h 46.04023 L 194.30217,96.622248 H 146.26123 L 102.22155,217.52748 57.385397,96.622248 Z m 202.571783,0 V 278.37832 h 46.83995 V 96.622248 Z m 67.65555,0 V 278.37832 h 47.63952 V 171.77067 c 0,-22.5542 14.05779,-37.78297 35.55927,-37.98676 30.68816,-0.29092 28.50607,27.48656 28.50607,27.48656 v 117.10785 h 47.26681 V 144.40197 c -5.52681,-48.868448 -60.35703,-47.779722 -60.35703,-47.779722 -16.15392,0.170026 -28.42272,3.980442 -36.46078,8.875462 -7.06185,4.30046 -11.58635,9.62135 -14.51434,14.66078 V 96.622248 Z M 549.91053,96.8102 c -2.01522,-0.04812 -3.16661,0.0065 -3.16661,0.0065 -83.45553,0.513601 -78.06344,62.14105 -78.06344,62.14105 h 45.70911 c 1.28384,-23.62438 26.70599,-25.42219 26.70599,-25.42219 0,0 17.46174,-1.54141 26.70615,11.55467 11.80916,19.17314 -15.52953,22.90779 -24.90933,23.88351 -32.86861,3.08143 -49.56063,10.01277 -49.56063,10.01277 -32.09824,11.81217 -30.55766,48.01868 -30.55766,48.01868 0.39896,22.43918 9.92263,35.28826 21.54519,42.41178 14.62215,8.96193 41.3668,8.96149 41.3668,8.96149 23.70493,0 38.74839,-9.18213 47.48994,-17.39734 1.82896,10.29555 3.8675,17.39734 3.8675,17.39734 h 43.39932 V 164.86411 c 0,-62.46325 -56.42609,-67.716745 -70.53233,-68.053779 z m 192.92203,0.436482 c -22.5811,0.07846 -39.81383,9.619928 -55.11322,26.215468 V 97.587549 H 642.52647 V 324.07143 h 46.47671 V 251.9144 c 0,0 19.77284,27.21905 58.5475,25.93511 0,0 45.1945,-1.02713 61.11533,-31.84149 15.92067,-30.81435 14.63521,-46.99285 14.63521,-46.99285 0,0 3.85298,-27.47354 -6.93218,-53.40894 0,0 -9.24246,-30.55931 -49.04438,-45.19613 -8.84203,-2.166245 -16.9649,-3.189564 -24.4921,-3.163418 z m 747.15194,37.094758 c 10.8163,0.30991 28.6798,5.45015 32.2557,35.17375 h -68.3087 c 6.0892,-29.28702 27.6777,-34.45697 27.6777,-34.45697 0,0 3.4587,-0.85766 8.3753,-0.71678 z m -375.5193,0.61487 c 1.1225,0.0259 1.765,0.10195 1.765,0.10195 18.5289,1.30029 40.6338,4.8769 41.2839,55.91295 0.6502,51.03604 -39.9841,48.11107 -39.9841,48.11107 -7.4766,0 -44.8621,0.9736 -43.5619,-53.96328 1.1378,-48.06976 32.6396,-50.3449 40.4971,-50.16267 z m -383.81173,2.91497 c 8.23738,0.13522 41.17906,3.59884 41.03552,50.36017 -0.15332,49.80443 -36.46388,51.35735 -36.46388,51.35735 0,0 -44.6807,6.93426 -45.45107,-48.5316 -0.77021,-55.46583 39.03172,-53.15726 39.03172,-53.15726 0,0 0.67103,-0.0481 1.84771,-0.029 z m -159.64695,51.68226 c 0.24842,24.96898 2.35482,44.19451 -28.11412,54.65776 0,0 -32.61057,9.24331 -32.8673,-15.15138 -0.25641,-24.3947 15.92018,-24.13797 42.11237,-30.55763 8.99633,-2.205 14.91184,-5.53207 18.86905,-8.94875 z" />
  </g>
</svg>
