<?xml version="1.0" encoding="UTF-8"?>
<svg id="Layer_2" data-name="Layer 2" xmlns="http://www.w3.org/2000/svg" viewBox="0 0 325.26 51.3">
  <defs>
    <style>
      .cls-1 {
        fill: #0061af;
      }

      .cls-2 {
        fill: #ed1c24;
      }
    </style>
  </defs>
  <g id="Layer_1-2" data-name="Layer 1">
    <g>
      <path class="cls-2" d="m250.72,17.34h.01s0,0,0,0h-.01Zm28.33,7.24h0c-.4-1.72-1.12-3.16-2.21-4.41h0c-1.48-1.67-3.37-2.77-5.78-3.38-2.23-.59-5.5-.87-10.01-.87-4.91,0-8.08.57-10.32,1.43-1,.36-2.09,1.14-2.89,1.9v-1.65h-6.36v33.27h6.39v-21.13c0-5.52,5.64-7.7,11.26-7.7h2.82c5.62,0,11.32,2.18,11.32,7.7v21.13h6.3v-18.15c0-4.12-.16-6.63-.51-8.13h0Z"/>
      <path class="cls-2" d="m171.58,15.81h6.36c.07-3.41.19-6.65.56-8.13.3-1.47.96-2.73,1.92-3.69,1.11-1.33,2.66-2.29,4.65-2.95,1.92-.52,5.19-.96,9.47-1.03h5.97s-5.74,5.59-5.74,5.59c-.21,0-2.23,0-2.43,0-8.45,0-7.86,5.41-7.86,10.2h14.86l-6.01,6.12h-9l.03,28.88h-6.42v-28.88h-6.36v-6.12h0Z"/>
      <polygon class="cls-2" points="165.23 4.87 165.23 11.39 171.59 11.39 171.59 4.87 165.23 4.87 165.23 4.87"/>
      <path class="cls-1" d="m116.13,33.41c0,3.95-.46,7.21-1.38,9.64-.93,2.53-4.09,8.25-19.45,8.25s-18.52-5.72-19.45-8.25c-.92-2.43-1.38-5.69-1.38-9.64s.46-7.21,1.38-9.64c.93-2.53,4.09-8.25,19.45-8.25s18.52,5.71,19.45,8.25c.92,2.43,1.38,5.68,1.38,9.64h0Zm-8.04-7.65h0c-.59-1.44-1.62-2.37-3.2-2.92-1.64-.53-4.53-.83-9.59-.91-5.05.07-7.94.38-9.59.91-1.58.55-2.61,1.48-3.2,2.92-.47,1.1-1,3.78-1,7.65s.53,6.54,1,7.65c.59,1.44,1.62,2.37,3.2,2.92,1.64.53,4.53.83,9.59.91,5.05-.07,7.94-.38,9.59-.91,1.58-.55,2.61-1.48,3.2-2.92.47-1.1,1-3.78,1-7.65s-.53-6.54-1-7.65h0Z"/>
      <path class="cls-2" d="m236.81,33.41c0,3.95-.46,7.21-1.38,9.64-.93,2.53-4.09,8.25-19.45,8.25s-18.52-5.72-19.45-8.25c-.92-2.43-1.38-5.69-1.38-9.64s.46-7.21,1.38-9.64c.93-2.53,4.09-8.25,19.45-8.25s18.52,5.71,19.45,8.25c.92,2.43,1.38,5.68,1.38,9.64h0Zm-8.04-7.65h0c-.59-1.44-1.62-2.37-3.2-2.92-1.64-.53-4.54-.83-9.59-.91-5.05.07-7.94.38-9.59.91-1.58.55-2.61,1.48-3.2,2.92-.47,1.1-1,3.78-1,7.65s.53,6.54,1,7.65c.59,1.44,1.62,2.37,3.2,2.92,1.64.53,4.53.83,9.59.91,5.05-.07,7.94-.38,9.59-.91,1.58-.55,2.61-1.48,3.2-2.92.47-1.1,1-3.78,1-7.65s-.53-6.54-1-7.65h0Z"/>
      <path class="cls-1" d="m40.71,17.11h0s0,0,0,0h0Zm0,0h0s0,0,0,0h0Zm28.67,7.42h0c-.4-1.72-1.13-3.16-2.22-4.41h0c-1.49-1.67-3.4-2.77-5.82-3.38-2.24-.59-5.48-.87-10.02-.87-4.96,0-8.32.4-10.59,1.25h0s0,0,0,0c-1.87.68-3.43,1.93-4.58,3.65-1.34-1.8-3-3.03-5.07-3.73-2.35-.79-6.72-1.18-12.23-1.18-4.14,0-6.98.29-8.69.9h-.02c-1.29.49-2.52,1.31-3.73,2.48v-1.7H0v33.27h6.35v-21.13c0-5.52,5.61-7.7,11.28-7.7h2.84c5.67,0,11.33,2.18,11.33,7.7v21.13h6.35v-21.13c0-5.52,5.54-7.7,11.21-7.7h2.84c5.67,0,11.35,2.18,11.35,7.7v21.13h6.34v-18.15c0-4.12-.16-6.63-.52-8.13h0Z"/>
      <path class="cls-2" d="m321.94,35.84h3.25c.04-.78.07-1.59.07-2.43,0-3.96-.46-7.21-1.38-9.64-.93-2.53-4.09-8.25-19.45-8.25s-18.52,5.71-19.45,8.25c-.92,2.43-1.38,5.68-1.38,9.64s.46,7.21,1.38,9.64c.93,2.53,4.09,8.25,19.45,8.25s18.52-5.72,19.45-8.25c.08-.22.16-.46.23-.69h-7.67c-.59.72-1.39,1.25-2.43,1.61-1.65.53-4.54.83-9.59.91-5.05-.07-7.94-.38-9.59-.91-1.58-.55-2.61-1.48-3.2-2.92-.36-.85-.76-2.64-.92-5.18h31.22v-.04h0Zm-27.09-12.99h0c1.64-.53,4.53-.83,9.59-.91,5.05.07,7.94.38,9.59.91,1.58.55,2.61,1.48,3.2,2.92.31.72.64,2.12.84,4.09h-27.25c.19-1.97.53-3.37.84-4.09.59-1.44,1.62-2.37,3.2-2.92h0Z"/>
      <polygon class="cls-1" points="165.23 15.81 165.23 50.8 171.59 50.8 171.59 15.81 165.23 15.81 165.23 15.81"/>
      <path class="cls-1" d="m159.37,23.77c-.93-2.53-4.09-8.25-19.45-8.25-5.88,0-9.96.84-12.82,2.02V0h-6.35v50.89h6.35v-1.61c2.86,1.18,6.94,2.02,12.82,2.02,15.36,0,18.52-5.71,19.45-8.25.92-2.43,1.38-5.69,1.38-9.64s-.46-7.21-1.38-9.64h0Zm-6.66,17.29h0c-.59,1.44-1.62,2.37-3.2,2.92-1.65.53-4.54.83-9.59.91-5.05-.07-7.04-.38-8.69-.91-1.58-.55-2.61-1.48-3.2-2.92-.37-.87-.78-2.73-.94-5.38v-4.54c.16-2.65.57-4.51.94-5.38.59-1.44,1.62-2.37,3.2-2.92,1.64-.53,3.63-.83,8.69-.91,5.05.07,7.94.38,9.59.91,1.58.55,2.61,1.48,3.2,2.92.47,1.1,1,3.78,1,7.65s-.53,6.54-1,7.65h0Z"/>
    </g>
  </g>
</svg>